HIERARCHY
ROOT Hips
{
  OFFSET 45.2707 90.5993 -19.6783
  CHANNELS 6 Xposition Yposition Zposition Zrotation Xrotation Yrotation
  JOINT Chest
  {
    OFFSET 1.23234e-007 14.8421 1.27318e-009
    CHANNELS 6 Xposition Yposition Zposition Zrotation Xrotation Yrotation
    JOINT Neck
    {
      OFFSET 0.51659 29.8236 6.51843
      CHANNELS 6 Xposition Yposition Zposition Zrotation Xrotation Yrotation
      JOINT Head
      {
        OFFSET 1.16803e-007 7.47049 6.44171e-007
        CHANNELS 6 Xposition Yposition Zposition Zrotation Xrotation Yrotation
        End Site
        {
          OFFSET -4.32676e-008 16.2908 2.16786e-007
        }
      }
    }
    JOINT LeftCollar
    {
      OFFSET 6.64893 27.3161 3.27471
      CHANNELS 6 Xposition Yposition Zposition Zrotation Xrotation Yrotation
      JOINT LeftUpArm
      {
        OFFSET 10.8584 2.41798 -0.945791
        CHANNELS 6 Xposition Yposition Zposition Zrotation Xrotation Yrotation
        JOINT LeftLowArm
        {
          OFFSET 3.77631 -24.5904 -1.70468
          CHANNELS 6 Xposition Yposition Zposition Zrotation Xrotation Yrotation
          JOINT LeftHand
          {
            OFFSET 1.01026 -21.1231 1.74131
            CHANNELS 6 Xposition Yposition Zposition Zrotation Xrotation Yrotation
            End Site
            {
              OFFSET 1.17583e-006 -9.81266 -2.89439e-008
            }
          }
        }
      }
    }
    JOINT RightCollar
    {
      OFFSET -6.11406 27.2248 4.23427
      CHANNELS 6 Xposition Yposition Zposition Zrotation Xrotation Yrotation
      JOINT RightUpArm
      {
        OFFSET -10.4566 2.3285 -0.910794
        CHANNELS 6 Xposition Yposition Zposition Zrotation Xrotation Yrotation
        JOINT RightLowArm
        {
          OFFSET -3.86856 -25.191 -1.74633
          CHANNELS 6 Xposition Yposition Zposition Zrotation Xrotation Yrotation
          JOINT RightHand
          {
            OFFSET -1.04759 -20.6242 1.75213
            CHANNELS 6 Xposition Yposition Zposition Zrotation Xrotation Yrotation
            End Site
            {
              OFFSET -2.03487e-006 -9.50367 -4.31372e-006
            }
          }
        }
      }
    }
  }
  JOINT LeftUpLeg
  {
    OFFSET 9 -3.38008e-006 -5.22999e-009
    CHANNELS 6 Xposition Yposition Zposition Zrotation Xrotation Yrotation
    JOINT LeftLowLeg
    {
      OFFSET -0.575 -51.431 3.90177
      CHANNELS 6 Xposition Yposition Zposition Zrotation Xrotation Yrotation
      JOINT LeftFoot
      {
        OFFSET 2.13082e-007 -43.5882 -3.90177
        CHANNELS 6 Xposition Yposition Zposition Zrotation Xrotation Yrotation
        End Site
        {
          OFFSET 7.44796e-007 -6.93413 15.0046
        }
      }
    }
  }
  JOINT RightUpLeg
  {
    OFFSET -9 6.86154e-007 -3.1954e-009
    CHANNELS 6 Xposition Yposition Zposition Zrotation Xrotation Yrotation
    JOINT RightLowLeg
    {
      OFFSET 0.575 -51.4311 3.90177
      CHANNELS 6 Xposition Yposition Zposition Zrotation Xrotation Yrotation
      JOINT RightFoot
      {
        OFFSET -7.46079e-007 -43.5882 -3.90177
        CHANNELS 6 Xposition Yposition Zposition Zrotation Xrotation Yrotation
        End Site
        {
          OFFSET 4.66716e-007 -6.93413 15.0046
        }
      }
    }
  }
}
MOTION
Frames:	4
Frame Time:	0.0333333
45.2707 90.5993 -19.6783 -0.110851 -7.95373 0.315451 1.23234e-007 14.8421 1.27318e-009 -0.637591 8.38413 -5.97734 0.51659 29.8236 6.51843 -0.564469 -12.5149 -0.229419 1.16803e-007 7.47049 6.44171e-007 -0.185524 21.3529 0.0425697 6.64893 27.3161 3.27471 -2.94784 5.93879 -4.20517 10.8584 2.41798 -0.945791 39.2585 -67.962 -13.934 3.77631 -24.5904 -1.70468 13.895 -3.29645 -38.4905 1.01026 -21.1231 1.74131 1.31294 -6.08074 -0.495184 -6.11406 27.2248 4.23427 -1.96452 7.32629 3.42623 -10.4566 2.3285 -0.910794 -21.2573 -75.9186 19.0084 -3.86856 -25.191 -1.74633 -6.89072 -2.98957 72.4689 -1.04759 -20.6242 1.75213 -5.22869 4.17118 -0.557184 9 -3.38008e-006 -5.22999e-009 10.5805 -14.6247 11.7271 -0.575 -51.431 3.90177 3.79514 48.2139 -18.3441 2.13082e-007 -43.5882 -3.90177 9.46001 -18.9448 0.547962 -9 6.86154e-007 -3.1954e-009 -14.1028 -14.8317 -17.5115 0.575 -51.4311 3.90177 -13.8321 46.9687 19.6993 -7.46079e-007 -43.5882 -3.90177 -7.02955 -16.2866 -0.139166 
45.282 90.6245 -19.6775 -0.132695 -7.88761 0.386535 1.23234e-007 14.8421 1.27318e-009 -0.693912 8.33378 -5.94758 0.51659 29.8236 6.51843 -0.301097 -12.4231 -0.294975 1.16803e-007 7.47049 6.44171e-007 -0.339895 21.1034 0.0967592 6.64893 27.3161 3.27471 -2.94784 5.93879 -4.20517 10.8584 2.41798 -0.945791 39.0672 -68.1226 -14.4653 3.77631 -24.5904 -1.70468 13.8919 -3.29234 -38.4679 1.01026 -21.1231 1.74131 1.30164 -6.25048 -0.505865 -6.11406 27.2248 4.23427 -1.96452 7.32629 3.42623 -10.4566 2.3285 -0.910794 -21.4166 -75.808 18.7158 -3.86856 -25.191 -1.74633 -6.83703 -2.98251 72.4888 -1.04759 -20.6242 1.75213 -5.03125 3.9785 -0.536 9 -3.38008e-006 -5.22999e-009 10.5724 -14.6818 11.7038 -0.575 -51.431 3.90177 3.8166 48.1665 -18.289 2.13082e-007 -43.5882 -3.90177 9.43389 -18.8944 0.542062 -9 6.86154e-007 -3.1954e-009 -14.094 -14.8629 -17.5179 0.575 -51.4311 3.90177 -13.8017 46.9477 19.7475 -7.46079e-007 -43.5882 -3.90177 -7.02009 -16.1625 -0.132649 
45.2959 90.6334 -19.6635 -0.114287 -7.88209 0.369486 1.23234e-007 14.8421 1.27318e-009 -0.706853 8.30379 -5.889 0.51659 29.8236 6.51843 -0.328003 -12.2765 -0.226397 1.16803e-007 7.47049 6.44171e-007 -0.310557 20.8615 0.143904 6.64893 27.3161 3.27471 -2.94784 5.93879 -4.20517 10.8584 2.41798 -0.945791 38.9968 -68.226 -14.9405 3.77631 -24.5904 -1.70468 13.8368 -3.12277 -38.201 1.01026 -21.1231 1.74131 0.972867 -6.42975 -0.574192 -6.11406 27.2248 4.23427 -1.96452 7.32629 3.42623 -10.4566 2.3285 -0.910794 -21.1737 -75.777 19.1317 -3.86856 -25.191 -1.74633 -6.78783 -2.93832 72.3149 -1.04759 -20.6242 1.75213 -5.04614 3.9966 -0.537659 9 -3.38008e-006 -5.22999e-009 10.5439 -14.6559 11.6901 -0.575 -51.431 3.90177 3.80598 48.1317 -18.2841 2.13082e-007 -43.5882 -3.90177 9.43907 -18.9187 0.544388 -9 6.86154e-007 -3.1954e-009 -14.1172 -14.8488 -17.5386 0.575 -51.4311 3.90177 -13.7868 46.9079 19.6803 -7.46079e-007 -43.5882 -3.90177 -7.01125 -16.1448 -0.131326 
45.2822 90.6299 -19.6543 -0.182052 -7.90367 0.354988 1.23234e-007 14.8421 1.27318e-009 -0.609083 8.3307 -5.88712 0.51659 29.8236 6.51843 -0.389232 -12.373 -0.216577 1.16803e-007 7.47049 6.44171e-007 -0.360252 20.9203 0.155625 6.64893 27.3161 3.27471 -2.94784 5.93879 -4.20517 10.8584 2.41798 -0.945791 39.0272 -68.2408 -14.9388 3.77631 -24.5904 -1.70468 13.8494 -3.23826 -38.1223 1.01026 -21.1231 1.74131 0.793204 -6.62991 -0.617506 -6.11406 27.2248 4.23427 -1.96452 7.32629 3.42623 -10.4566 2.3285 -0.910794 -20.7315 -75.7945 19.4426 -3.86856 -25.191 -1.74633 -6.79291 -2.99811 72.5474 -1.04759 -20.6242 1.75213 -5.21254 4.05518 -0.553449 9 -3.38008e-006 -5.22999e-009 10.6346 -14.6483 11.7401 -0.575 -51.431 3.90177 3.83013 48.1945 -18.408 2.13082e-007 -43.5882 -3.90177 9.43639 -18.8827 0.541288 -9 6.86154e-007 -3.1954e-009 -14.0209 -14.8196 -17.4649 0.575 -51.4311 3.90177 -13.791 46.8948 19.7127 -7.46079e-007 -43.5882 -3.90177 -7.01381 -16.1426 -0.131357 
